<svg width="1357" height="272" viewBox="0 0 1357 272" fill="none" xmlns="http://www.w3.org/2000/svg">
<path d="M142.632 0.989258L124.798 102.535L72.4005 145.398L97.7422 0.989258H46.9678L0 267.344H50.7896L63.832 193.661L116.396 150.464L95.6645 267.344H146.454L193.422 0.989258H142.632Z" fill="white"/>
<path d="M262.913 151.092L240.907 170.12C224.528 184.195 215.914 197.133 214.034 207.796C212.229 218.079 215.641 225.678 224.771 225.678C236.267 225.678 245.957 215.789 253.191 206.264L262.913 151.092ZM243.175 267.54L252.63 240.906H247.868C239.239 251.569 223.057 271.347 199.657 271.347C173.466 271.347 162.274 251.569 167.036 224.54C172.131 195.616 188.525 174.7 220.858 148.81L270.283 109.238L271.223 103.914C274.317 86.4109 270.753 77.2801 260.046 77.2801C249.339 77.2801 242.576 86.4109 239.482 103.914L235.114 128.652H185.523L188.01 114.577C195.79 70.4396 225.226 43.0321 266.082 43.0321C306.938 43.0321 326.714 70.4244 318.874 114.956L291.97 267.54H243.175Z" fill="white"/>
<path d="M308.724 267.532L347.632 46.8391H397.223L387.896 72.7147H392.658C408.385 53.3156 425.264 43.0321 443.129 43.0321C462.966 43.0321 481.24 58.6394 473.733 101.245L444.418 267.525H394.827L421.655 115.32C424.278 100.486 421.988 90.9611 410.872 90.9611C400.559 90.9611 392.067 100.85 386.364 108.464L358.323 267.525L308.724 267.532Z" fill="white"/>
<path d="M576.909 103.54C573.83 94.0301 567.877 87.1744 558.763 87.1744C547.252 87.1744 540.352 99.3538 537.47 115.719L523.442 195.242C520.561 211.608 523.169 223.787 534.68 223.787C543.81 223.787 552.151 216.947 558.596 207.422L576.909 103.54ZM597.572 267.538L547.98 267.545L556.048 242.049H551.286C537.228 258.794 524.307 271.352 504.864 271.352C477.49 271.352 462.81 242.049 476.429 164.816L479.113 149.588C492.732 72.3407 516.148 43.0524 546.297 43.0524C562.569 43.0524 572.518 54.0943 578.645 66.6529H583.407L594.948 1.17523H644.539L597.572 267.538Z" fill="white"/>
<path d="M763.164 121.446L713.573 121.439L717.258 100.508C719.745 86.4325 717.455 76.9225 705.944 76.9225C697.209 76.9225 691.249 83.7782 690.036 90.6187C687.958 102.419 693.691 110.397 702.972 122.971L730.194 159.873C741.66 175.859 752.2 192.604 747.771 217.706C742.205 249.285 712.117 271.353 675.234 271.353C638.352 271.353 612.525 251.181 619.91 209.334L623.262 190.314H672.853L668.622 214.294C666.211 227.99 670.806 237.879 681.528 237.879C691.446 237.879 696.754 230.265 698.165 222.272C700.106 211.23 693.979 203.252 685.016 191.072L658.203 154.17C647.072 138.563 637.578 122.592 642.082 97.0952C646.708 70.8404 674.218 43.0689 712.708 43.0689C751.199 43.0689 772.491 68.5653 765.985 105.468L763.164 121.446Z" fill="white"/>
<path d="M1149.43 267.545L1118.87 168.608H1114.11L1096.67 267.545H1047.08L1094.03 1.17523H1143.64L1120.22 133.981H1124.98L1182.4 46.8443H1235.57L1167.78 149.952L1205.38 267.545H1149.43Z" fill="white"/>
<path d="M1264.36 140.058H1301.65L1307.96 104.293C1310.7 88.686 1307.17 77.2801 1294.08 77.2801C1280.99 77.2801 1273.43 88.7012 1270.67 104.293L1264.36 140.058ZM1258.65 172.41L1252.01 210.086C1249.27 225.693 1252.8 237.099 1265.9 237.099C1279.01 237.099 1286.56 225.678 1289.32 210.086L1292.75 190.687H1345.92C1337.94 235.961 1302.73 271.347 1259.88 271.347C1217.04 271.347 1194.29 240.527 1207.71 164.417L1210.26 149.962C1223.68 73.8523 1257.29 43.0321 1300.13 43.0321C1342.97 43.0321 1366.51 73.8523 1353.09 149.962L1349.13 172.41H1258.65Z" fill="white"/>
<path d="M750.049 267.53L797.017 1.17523H846.608L834.734 68.5185H839.495C855.328 52.9113 869.781 43.0221 887.631 43.0221C907.468 43.0221 922.573 58.6294 915.051 101.235L885.735 267.515H836.144L863.578 111.882C866.202 97.0484 863.912 87.5233 852.796 87.5233C842.483 87.5233 833.99 97.4124 828.288 105.026L799.64 267.53H750.049Z" fill="white"/>
<path d="M1001.26 151.092L979.257 170.12C962.879 184.195 954.249 197.133 952.384 207.796C950.579 218.079 953.992 225.678 963.121 225.678C974.632 225.678 984.308 215.789 991.542 206.264L1001.26 151.092ZM981.525 267.54L990.98 240.906H986.218C977.589 251.569 961.408 271.347 938.007 271.347C911.816 271.347 900.624 251.569 905.386 224.54C910.482 195.616 926.875 174.7 959.208 148.81L1008.63 109.238L1009.57 103.914C1012.65 86.4109 1009.1 77.2801 998.396 77.2801C987.689 77.2801 980.91 86.4109 977.832 103.914L973.464 128.652H923.873L926.36 114.577C934.14 70.4396 963.576 43.0321 1004.43 43.0321C1045.29 43.0321 1065.06 70.4244 1057.22 114.956L1030.32 267.54H981.525Z" fill="white"/>
</svg>
