<svg width="1357" height="271" viewBox="0 0 1357 271" fill="none" xmlns="http://www.w3.org/2000/svg">
<path d="M142.632 0L124.798 101.546L72.4005 144.409L97.7422 0H46.9678L0 266.355H50.7896L63.832 192.671L116.396 149.475L95.6645 266.355H146.454L193.422 0H142.632Z" fill="#052326"/>
<path d="M262.913 150.103L240.907 169.131C224.528 183.206 215.914 196.144 214.034 206.806C212.229 217.09 215.641 224.689 224.771 224.689C236.267 224.689 245.957 214.8 253.191 205.274L262.913 150.103ZM243.175 266.551L252.63 239.917H247.868C239.239 250.579 223.057 270.358 199.657 270.358C173.466 270.358 162.274 250.579 167.036 223.551C172.131 194.627 188.525 173.711 220.858 147.82L270.283 108.249L271.223 102.925C274.317 85.4216 270.753 76.2909 260.046 76.2909C249.339 76.2909 242.576 85.4216 239.482 102.925L235.114 127.663H185.523L188.01 113.587C195.79 69.4504 225.226 42.0429 266.082 42.0429C306.938 42.0429 326.714 69.4352 318.874 113.967L291.97 266.551H243.175Z" fill="#052326"/>
<path d="M308.724 266.543L347.632 45.8499H397.223L387.896 71.7255H392.658C408.385 52.3264 425.264 42.0429 443.129 42.0429C462.966 42.0429 481.24 57.6501 473.733 100.255L444.418 266.536H394.827L421.655 114.331C424.278 99.497 421.988 89.9719 410.872 89.9719C400.559 89.9719 392.067 99.861 386.364 107.475L358.323 266.536L308.724 266.543Z" fill="#052326"/>
<path d="M576.909 102.551C573.83 93.0408 567.877 86.1851 558.763 86.1851C547.252 86.1851 540.352 98.3646 537.47 114.73L523.442 194.253C520.561 210.618 523.169 222.798 534.68 222.798C543.81 222.798 552.151 215.957 558.596 206.432L576.909 102.551ZM597.572 266.548L547.98 266.556L556.048 241.059H551.286C537.228 257.804 524.307 270.363 504.864 270.363C477.49 270.363 462.81 241.059 476.429 163.827L479.113 148.599C492.732 71.3514 516.148 42.0632 546.297 42.0632C562.569 42.0632 572.518 53.105 578.645 65.6636H583.407L594.948 0.185971H644.539L597.572 266.548Z" fill="#052326"/>
<path d="M763.164 120.457L713.573 120.45L717.258 99.5186C719.745 85.4432 717.455 75.9333 705.944 75.9333C697.209 75.9333 691.249 82.7889 690.036 89.6294C687.958 101.43 693.691 109.408 702.972 121.981L730.194 158.884C741.66 174.87 752.2 191.615 747.771 216.717C742.205 248.296 712.117 270.364 675.234 270.364C638.352 270.364 612.525 250.192 619.91 208.345L623.262 189.325H672.853L668.622 213.304C666.211 227.001 670.806 236.89 681.528 236.89C691.446 236.89 696.754 229.276 698.165 221.283C700.106 210.241 693.979 202.263 685.016 190.083L658.203 153.181C647.072 137.574 637.578 121.602 642.082 96.1059C646.708 69.8511 674.218 42.0796 712.708 42.0796C751.199 42.0796 772.491 67.576 765.985 104.478L763.164 120.457Z" fill="#052326"/>
<path d="M1149.43 266.556L1118.87 167.619H1114.11L1096.67 266.556H1047.08L1094.03 0.185971H1143.64L1120.22 132.992H1124.98L1182.4 45.855H1235.57L1167.78 148.963L1205.38 266.556H1149.43Z" fill="#052326"/>
<path d="M1264.36 139.069H1301.65L1307.96 103.304C1310.7 87.6967 1307.17 76.2909 1294.08 76.2909C1280.99 76.2909 1273.43 87.7119 1270.67 103.304L1264.36 139.069ZM1258.65 171.421L1252.01 209.097C1249.27 224.704 1252.8 236.11 1265.9 236.11C1279.01 236.11 1286.56 224.689 1289.32 209.097L1292.75 189.698H1345.92C1337.94 234.972 1302.73 270.358 1259.88 270.358C1217.04 270.358 1194.29 239.538 1207.71 163.428L1210.26 148.973C1223.68 72.863 1257.29 42.0429 1300.13 42.0429C1342.97 42.0429 1366.51 72.863 1353.09 148.973L1349.13 171.421H1258.65Z" fill="#052326"/>
<path d="M750.049 266.541L797.017 0.185971H846.608L834.734 67.5293H839.495C855.328 51.922 869.781 42.0328 887.631 42.0328C907.468 42.0328 922.573 57.6401 915.051 100.245L885.735 266.526H836.144L863.578 110.893C866.202 96.0591 863.912 86.534 852.796 86.534C842.483 86.534 833.99 96.4232 828.288 104.037L799.64 266.541H750.049Z" fill="#052326"/>
<path d="M1001.26 150.103L979.257 169.131C962.879 183.206 954.249 196.144 952.384 206.806C950.579 217.09 953.992 224.689 963.121 224.689C974.632 224.689 984.308 214.8 991.542 205.274L1001.26 150.103ZM981.525 266.551L990.98 239.917H986.218C977.589 250.579 961.408 270.358 938.007 270.358C911.816 270.358 900.624 250.579 905.386 223.551C910.482 194.627 926.875 173.711 959.208 147.82L1008.63 108.249L1009.57 102.925C1012.65 85.4216 1009.1 76.2909 998.396 76.2909C987.689 76.2909 980.91 85.4216 977.832 102.925L973.464 127.663H923.873L926.36 113.587C934.14 69.4504 963.576 42.0429 1004.43 42.0429C1045.29 42.0429 1065.06 69.4352 1057.22 113.967L1030.32 266.551H981.525Z" fill="#052326"/>
</svg>
